<svg version="1.1" id="Layer_1" xmlns="http://www.w3.org/2000/svg" xmlns:xlink="http://www.w3.org/1999/xlink" x="0px" y="0px"
	 width="100%" viewBox="0 0 800 791" enable-background="new 0 0 800 791" xml:space="preserve">
<path fill="#E8E7E2" opacity="1.000000" stroke="none" 
	d="
M0.999998,377.000000 
	C1.000000,366.645782 1.000000,356.291534 1.307103,345.803101 
	C1.991313,345.348236 2.623018,345.084198 2.708658,344.698822 
	C5.563055,331.854919 11.952261,320.772217 19.544041,310.224823 
	C30.400030,295.142395 40.948524,279.837097 51.902901,264.827362 
	C66.455452,244.887390 81.248726,225.122803 95.982300,205.315399 
	C111.161659,184.908691 126.355453,164.512512 141.614456,144.165344 
	C153.787064,127.933716 165.929871,111.676590 178.334167,95.622589 
	C193.960968,75.397926 209.660034,55.223499 225.669388,35.301815 
	C237.860641,20.131289 251.900681,7.262270 271.730438,2.711924 
	C271.940186,2.663791 271.915344,1.593250 272.000000,1.000000 
	C282.354218,1.000000 292.708466,1.000000 303.204163,1.331733 
	C303.688904,2.020473 303.979065,2.607218 304.383331,2.700765 
	C313.557404,4.823762 322.747894,6.875732 331.927490,8.975180 
	C357.706024,14.870956 383.477966,20.795704 409.258545,26.682644 
	C427.638214,30.879597 446.056061,34.913086 464.406006,39.235546 
	C491.840302,45.697880 519.229004,52.353565 546.638672,58.920361 
	C563.182678,62.883965 579.773010,66.663292 596.264832,70.832916 
	C619.615723,76.736717 643.093079,82.270897 666.124451,89.255447 
	C678.353455,92.964035 687.873108,101.855682 693.451111,113.546021 
	C698.463074,124.050056 702.331299,135.125839 706.307800,146.093094 
	C718.255188,179.044205 730.010071,212.065094 741.837769,245.059586 
	C750.152466,268.254303 758.624329,291.394257 766.736511,314.659607 
	C777.635925,345.918060 788.248413,377.276489 799.053040,408.568207 
	C799.269409,409.194824 800.332153,409.529266 801.000000,410.000000 
	C801.000000,420.020905 801.000000,430.041779 800.688843,440.200806 
	C799.849976,441.298431 799.248230,442.225067 798.806274,443.222534 
	C794.977905,451.863007 792.203369,461.172913 787.166199,469.034973 
	C775.002197,488.020935 761.832397,506.364990 748.978271,524.905518 
	C738.512451,540.001282 728.003174,555.068359 717.353516,570.034546 
	C706.635254,585.097107 695.693359,600.000366 684.898254,615.008484 
	C672.671387,632.007263 660.654846,649.159546 648.260071,666.034546 
	C635.002686,684.083679 621.478882,701.938843 607.936401,719.776245 
	C601.176697,728.679749 594.367493,737.569458 587.112000,746.065125 
	C581.327820,752.838074 574.714905,758.895691 568.681091,765.464783 
	C558.609924,776.429626 547.964661,786.459839 532.868835,790.114380 
	C532.451477,790.215332 532.283997,791.348267 532.000000,792.000000 
	C520.312439,792.000000 508.624878,792.000000 496.800659,791.655518 
	C494.349365,790.799133 492.029602,790.309204 489.720917,789.771729 
	C467.799072,784.668030 445.788330,779.912598 423.981628,774.356567 
	C396.652313,767.393555 369.469269,759.850769 342.264862,752.405518 
	C324.551575,747.557861 306.890839,742.513794 289.246735,737.418579 
	C271.762512,732.369629 254.306564,727.219910 236.878143,721.981506 
	C212.341476,714.606689 187.443344,708.269958 164.583069,696.136108 
	C154.107895,690.576050 144.648972,683.489380 138.251740,673.755432 
	C130.171021,661.459839 123.536270,648.185181 116.684113,635.119812 
	C110.906288,624.102966 105.551506,612.855225 100.291229,601.578186 
	C92.394417,584.648987 84.772842,567.591675 76.976395,550.615417 
	C73.109497,542.195435 69.030777,533.872437 65.193359,525.439331 
	C57.191521,507.854645 49.300827,490.219421 41.334702,472.618439 
	C37.983833,465.214752 34.446003,457.894012 31.190224,450.449371 
	C25.572649,437.604309 19.823450,424.804871 14.669320,411.772797 
	C10.376255,400.917908 6.880660,389.748505 2.942693,378.750366 
	C2.683937,378.027710 1.665222,377.577118 0.999998,377.000000 
M202.812454,599.781250 
	C203.558990,600.513855 204.305527,601.246460 205.620026,602.367188 
	C212.079666,610.926880 218.618591,619.428345 224.967834,628.069214 
	C228.514175,632.895569 231.745453,637.953430 234.835159,643.585938 
	C232.054520,650.469604 226.020706,652.350159 222.175278,647.418701 
	C207.166779,628.171387 192.180908,608.906006 177.284821,589.571716 
	C168.029205,577.558472 159.032257,565.345825 149.771561,553.336548 
	C137.185257,537.014526 124.425468,520.826416 111.801765,504.533051 
	C102.710258,492.798676 93.760506,480.954498 84.674377,469.215912 
	C70.138649,450.436890 55.532894,431.712067 40.975418,412.949860 
	C33.877190,403.801392 26.821123,394.620209 19.745970,385.453857 
	C19.267355,385.703461 18.788738,385.953064 18.310122,386.202667 
	C35.543678,425.055298 52.777237,463.907959 70.082390,502.922028 
	C75.489891,499.692902 79.408058,500.877380 83.016495,504.835968 
	C90.289131,512.814331 97.715393,520.652710 104.707870,528.151611 
	C114.109085,523.495972 115.761581,524.102417 119.715851,532.278992 
	C120.143425,533.163147 120.712502,533.987427 121.280830,534.793701 
	C126.886177,542.745789 132.430695,550.742371 138.153519,558.609192 
	C140.809631,562.260437 140.425903,565.429443 137.171082,568.225098 
	C133.939011,571.001282 130.816574,570.224915 127.907104,567.436523 
	C120.980202,560.797852 113.821541,554.388367 107.114647,547.535828 
	C97.990829,538.213745 89.200691,528.565002 80.267448,519.056396 
	C79.660522,519.589966 79.053604,520.123596 78.446678,520.657227 
	C81.815689,527.834900 85.184700,535.012573 88.553711,542.190247 
	C88.971779,541.708740 89.389839,541.227234 89.807907,540.745789 
	C92.290588,541.745544 95.026512,542.375977 97.181526,543.853577 
	C99.158607,545.209229 100.525230,547.464905 102.133179,549.347595 
	C111.100479,559.847351 120.059387,570.354187 129.078125,580.925415 
	C132.618607,575.653870 137.567322,574.142273 141.047180,577.796021 
	C145.923721,582.916382 151.126205,588.143677 154.410416,594.277588 
	C161.585251,607.677917 167.584274,621.704895 174.186172,635.416870 
	C175.958298,639.097534 174.281586,641.564880 171.688354,643.582031 
	C168.208832,646.288635 164.287491,644.734314 160.396729,639.848267 
	C155.770966,634.039124 150.925781,628.404785 146.179001,622.691895 
	C138.373215,613.297546 130.652939,603.830444 122.739677,594.527466 
	C116.443359,587.125427 109.912651,579.922729 103.275360,572.173828 
	C102.964539,572.012817 102.653717,571.851807 102.342911,571.690796 
	C102.537903,572.146729 102.732887,572.602600 103.036469,573.781616 
	C103.887398,575.570374 104.722969,577.366638 105.591560,579.146790 
	C118.707977,606.028198 131.264328,633.204102 145.172379,659.669678 
	C152.810425,674.204163 164.498688,683.578674 182.983200,682.257385 
	C197.167953,681.243469 211.533325,682.503357 225.799515,683.160950 
	C227.888641,683.257202 230.804138,685.167908 231.722809,687.033875 
	C234.028961,691.718323 230.641296,695.889893 224.807571,695.977051 
	C216.440643,696.101990 208.070480,696.008911 198.767365,696.008911 
	C281.622772,722.081360 364.575409,745.002991 448.127594,765.808167 
	C447.644714,765.181091 447.031555,765.001831 446.429779,764.790283 
	C401.144836,748.870422 355.858093,732.955688 310.578156,717.021851 
	C293.617981,711.053650 276.625549,705.169556 259.779297,698.894104 
	C257.500824,698.045410 255.052643,695.378723 254.442795,693.085754 
	C254.001389,691.426208 255.997391,688.206726 257.780670,687.127136 
	C259.517700,686.075806 262.583405,686.222717 264.692596,686.940308 
	C281.871124,692.785034 298.947235,698.929688 316.082672,704.902283 
	C351.911713,717.390503 387.796509,729.719971 423.585876,742.320740 
	C456.415161,753.879333 489.144836,765.720825 521.940979,777.374084 
	C523.276672,777.848755 525.052979,778.198853 526.266174,777.713196 
	C532.050232,775.397644 538.570862,773.828796 543.230591,770.031982 
	C552.163452,762.753418 560.016113,754.148682 568.307312,746.084290 
	C568.536255,745.861572 568.671692,745.534973 568.825562,745.243530 
	C578.236633,727.422852 587.605408,709.579712 597.062744,691.783630 
	C613.361816,661.113159 629.699036,630.462952 646.053162,599.821777 
	C655.707520,581.733459 665.394653,563.662415 675.133423,545.619385 
	C677.984680,540.336853 680.932068,539.174011 684.879211,541.421814 
	C688.422974,543.439880 689.201843,547.989624 686.858093,552.337830 
	C675.089478,574.170837 663.344849,596.016846 651.597717,617.861389 
	C644.392700,631.259705 637.130493,644.627869 630.024780,658.078613 
	C625.859558,665.963074 621.951172,673.983215 617.473572,682.206055 
	C617.446594,682.592712 617.419556,682.979309 617.392578,683.365967 
	C617.755859,683.034180 618.119141,682.702454 619.094482,682.096802 
	C628.706055,668.925598 638.382507,655.801208 647.916077,642.573792 
	C669.017883,613.296021 690.083862,583.992249 711.092346,554.647461 
	C721.937195,539.499390 732.657837,524.261963 743.372437,509.021240 
	C747.379944,503.321014 751.210999,497.496826 755.122498,491.729126 
	C753.380920,491.293945 752.282898,491.505798 751.480957,492.110443 
	C738.978027,501.537750 726.489319,510.984375 714.050598,520.496216 
	C708.316833,524.880737 704.328247,524.155151 700.985596,517.135681 
	C702.112671,514.835388 702.651855,511.786469 704.466309,510.361694 
	C713.359558,503.378296 722.660522,496.917603 731.689697,490.103027 
	C746.874390,478.642853 761.979309,467.076660 777.068542,455.490936 
	C778.811218,454.152893 780.879517,452.690643 781.715271,450.806305 
	C788.650146,435.170227 788.589233,419.154449 783.131226,403.182281 
	C776.137268,382.715515 768.775085,362.374695 761.586060,341.974487 
	C758.540405,333.331848 755.531738,324.676178 752.506287,316.026459 
	C752.017761,316.178436 751.529175,316.330444 751.040649,316.482452 
	C752.803406,321.945862 754.401062,327.470001 756.382629,332.852844 
	C757.885681,336.935699 756.731628,340.999603 753.579590,342.383698 
	C751.152283,343.449554 746.472107,342.218140 744.247070,340.311829 
	C739.840698,336.536591 736.505981,331.529205 732.607605,327.138367 
	C725.511536,319.145782 718.286011,311.267975 711.200195,303.266388 
	C708.350281,300.048187 707.767395,296.609680 711.226562,293.343140 
	C714.396118,290.350159 717.862122,290.548431 721.343506,294.215942 
	C726.829895,299.995453 732.138977,305.943298 737.736511,312.052734 
	C738.447266,303.270752 741.907837,302.950348 747.319275,302.215149 
	C730.033997,253.899063 712.768921,205.639313 696.005127,158.780930 
	C696.005127,172.610809 696.038025,187.694534 695.994873,202.778046 
	C695.959106,215.274826 695.666260,227.772873 695.779541,240.267715 
	C696.109619,276.666748 696.760193,313.063538 696.957764,349.462952 
	C697.168457,388.276031 696.975525,427.091156 697.047668,465.905212 
	C697.055603,470.162170 698.270508,474.487427 697.805237,478.655914 
	C697.283264,483.332550 694.924255,487.390289 690.098816,486.805939 
	C685.969238,486.305847 684.148315,484.009094 683.970947,478.572998 
	C683.734009,471.315765 683.193115,464.066986 683.037476,456.809082 
	C682.912476,450.982788 683.290344,445.147156 683.232178,439.317810 
	C682.851990,401.251892 682.295959,363.187347 682.042908,325.120728 
	C681.909973,305.126862 682.521301,285.127594 682.353516,265.134521 
	C682.133484,238.914017 681.300293,212.698761 681.066528,186.478241 
	C680.901489,167.965149 681.443115,149.446228 681.336792,130.931824 
	C681.309021,126.095261 681.281860,120.551094 679.018372,116.619232 
	C676.361084,112.003296 671.446594,108.564621 667.121216,105.102516 
	C665.750061,104.004997 662.860107,103.723488 661.126831,104.348549 
	C653.961304,106.932663 646.986511,110.041718 639.916321,112.895279 
	C624.224731,119.228531 608.535522,125.568207 592.812317,131.822433 
	C577.527466,137.902313 562.192627,143.856659 546.895752,149.906464 
	C528.954224,157.002243 511.014923,164.104355 493.102234,171.272736 
	C475.967468,178.129791 458.896698,185.147263 441.746094,191.964127 
	C419.694672,200.728897 397.589996,209.359665 375.512207,218.058167 
	C370.679993,219.962021 365.938324,222.132034 361.015686,223.757721 
	C357.593719,224.887817 354.089844,224.019699 352.504333,220.567505 
	C351.163513,217.647980 351.198334,214.143570 354.644562,212.350220 
	C359.046783,210.059326 363.611023,208.040436 368.222870,206.198257 
	C391.726105,196.809952 415.266602,187.514908 438.795349,178.190430 
	C457.474548,170.787796 476.166199,163.416245 494.832947,155.982315 
	C513.917480,148.381973 532.970093,140.701691 552.052246,133.095322 
	C567.962402,126.753342 583.901733,120.484596 599.815735,114.152191 
	C614.438416,108.333618 629.044556,102.473343 644.635803,96.240517 
	C629.921875,92.938370 616.223267,90.015656 602.600342,86.774979 
	C574.957214,80.199135 547.374878,73.367455 519.729919,66.799591 
	C495.563599,61.058201 471.336700,55.572384 447.153656,49.900860 
	C429.230560,45.697449 411.357605,41.279125 393.421722,37.131863 
	C365.818054,30.749151 338.174530,24.538841 310.558136,18.210835 
	C297.639313,15.250626 284.748962,13.041303 271.567444,16.892979 
	C267.853180,17.978306 266.270935,19.416265 267.637726,23.514227 
	C272.037750,36.706669 276.188538,49.982174 280.446411,63.222130 
	C288.232239,87.432533 296.041412,111.635437 303.811676,135.850830 
	C310.826691,157.712463 317.804382,179.586060 324.794891,201.455551 
	C326.578217,207.034622 325.129913,211.024765 320.832489,212.417969 
	C316.983521,213.665787 313.779663,211.380905 311.994202,206.006363 
	C309.035675,197.100800 306.120728,188.180756 303.197662,179.263428 
	C297.859283,162.977631 292.407867,146.727570 287.230042,130.390854 
	C282.542999,115.602509 278.245056,100.691216 273.615906,85.884033 
	C268.700531,70.161179 263.681183,54.469296 258.504517,38.831001 
	C257.482758,35.744335 255.539261,32.962784 254.212646,29.402723 
	C254.467041,28.521429 254.721436,27.640137 255.125519,26.240229 
	C254.193253,26.695354 253.725876,26.792324 253.452393,27.076130 
	C245.553818,35.273026 237.068146,42.996235 229.918152,51.803333 
	C214.872833,70.335632 200.399582,89.338890 185.931793,108.331871 
	C168.272675,131.514359 150.844055,154.872589 133.345978,178.177536 
	C118.220634,198.322311 103.034019,218.422348 88.065697,238.683411 
	C73.811417,257.977936 59.766743,277.427887 45.708832,296.866577 
	C40.642921,303.871552 35.806446,311.042419 30.007746,319.368896 
	C33.383450,318.661591 35.314529,318.486420 37.075310,317.844269 
	C42.023823,316.039642 46.861084,313.928864 51.814781,312.139709 
	C88.833778,298.769653 125.878838,285.471741 162.889343,272.078278 
	C166.990189,270.594269 170.925156,268.651825 175.379471,266.280518 
	C176.039612,266.238922 176.750900,266.344055 177.352402,266.134308 
	C192.419006,260.880402 207.498398,255.661499 222.525711,250.296890 
	C248.693802,240.955139 274.818329,231.491470 300.986115,222.148834 
	C305.992554,220.361374 310.024384,222.003876 311.535797,226.087845 
	C312.899628,229.772995 310.453125,233.211075 305.325348,235.008972 
	C297.521606,237.745087 289.726196,240.506683 281.957153,243.339478 
	C259.990265,251.349167 238.009018,259.321014 216.091858,267.465027 
	C202.684952,272.446747 189.385666,277.718048 175.569183,282.349823 
	C163.922287,286.302246 152.210709,290.075012 140.640396,294.240143 
	C102.970879,307.800537 65.407784,321.659119 27.667389,335.017731 
	C20.425755,337.580994 16.524868,341.528534 15.867144,349.189911 
	C15.546889,352.920319 14.189942,356.135834 17.116190,359.848969 
	C30.261482,376.529114 43.001694,393.528137 55.928585,410.380981 
	C64.945419,422.136292 74.000969,433.862122 83.087570,445.563568 
	C96.315575,462.598267 109.632095,479.564362 122.824867,496.626221 
	C132.272583,508.844727 141.552551,521.192749 150.956024,533.445679 
	C161.970810,547.798157 172.971771,562.162231 184.127625,576.404663 
	C187.093109,580.190552 190.604187,583.549072 193.962601,587.028748 
	C193.962601,587.028748 193.889145,587.127808 193.790512,587.842590 
	C194.816116,588.929077 195.841736,590.015564 196.965302,591.025146 
	C196.965302,591.025146 196.890717,591.124878 196.793015,591.838379 
	C197.817535,592.926331 198.842056,594.014221 199.962021,595.028564 
	C199.962021,595.028564 199.891495,595.126282 199.840775,595.832581 
	C200.848969,596.922913 201.857178,598.013184 202.960907,599.031006 
	C202.960907,599.031006 202.890961,599.128418 202.812454,599.781250 
M757.772278,487.805695 
	C757.535950,487.814850 757.287659,487.786072 757.070068,487.854675 
	C756.998474,487.877197 757.006470,488.151886 756.978088,488.311249 
	C757.235901,488.304535 757.493713,488.297821 757.772278,487.805695 
z"/>
<path fill="#000000" opacity="1.000000" stroke="none" 
	d="
M0.999998,377.468658 
	C1.665222,377.577118 2.683937,378.027710 2.942693,378.750366 
	C6.880660,389.748505 10.376255,400.917908 14.669320,411.772797 
	C19.823450,424.804871 25.572649,437.604309 31.190224,450.449371 
	C34.446003,457.894012 37.983833,465.214752 41.334702,472.618439 
	C49.300827,490.219421 57.191521,507.854645 65.193359,525.439331 
	C69.030777,533.872437 73.109497,542.195435 76.976395,550.615417 
	C84.772842,567.591675 92.394417,584.648987 100.291229,601.578186 
	C105.551506,612.855225 110.906288,624.102966 116.684113,635.119812 
	C123.536270,648.185181 130.171021,661.459839 138.251740,673.755432 
	C144.648972,683.489380 154.107895,690.576050 164.583069,696.136108 
	C187.443344,708.269958 212.341476,714.606689 236.878143,721.981506 
	C254.306564,727.219910 271.762512,732.369629 289.246735,737.418579 
	C306.890839,742.513794 324.551575,747.557861 342.264862,752.405518 
	C369.469269,759.850769 396.652313,767.393555 423.981628,774.356567 
	C445.788330,779.912598 467.799072,784.668030 489.720917,789.771729 
	C492.029602,790.309204 494.349365,790.799133 496.332001,791.655518 
	C331.079315,792.000000 166.158661,792.000000 1.000000,792.000000 
	C1.000000,653.979187 1.000000,515.958252 0.999998,377.468658 
z"/>
<path fill="#000000" opacity="1.000000" stroke="none" 
	d="
M801.000000,409.531342 
	C800.332153,409.529266 799.269409,409.194824 799.053040,408.568207 
	C788.248413,377.276489 777.635925,345.918060 766.736511,314.659607 
	C758.624329,291.394257 750.152466,268.254303 741.837769,245.059586 
	C730.010071,212.065094 718.255188,179.044205 706.307800,146.093094 
	C702.331299,135.125839 698.463074,124.050056 693.451111,113.546021 
	C687.873108,101.855682 678.353455,92.964035 666.124451,89.255447 
	C643.093079,82.270897 619.615723,76.736717 596.264832,70.832916 
	C579.773010,66.663292 563.182678,62.883965 546.638672,58.920361 
	C519.229004,52.353565 491.840302,45.697880 464.406006,39.235546 
	C446.056061,34.913086 427.638214,30.879597 409.258545,26.682644 
	C383.477966,20.795704 357.706024,14.870956 331.927490,8.975180 
	C322.747894,6.875732 313.557404,4.823762 304.383331,2.700765 
	C303.979065,2.607218 303.688904,2.020473 303.672791,1.331733 
	C469.586670,1.000000 635.173340,1.000000 801.000000,1.000000 
	C801.000000,137.020798 801.000000,273.041748 801.000000,409.531342 
z"/>
<path fill="#000000" opacity="1.000000" stroke="none" 
	d="
M532.468689,792.000000 
	C532.283997,791.348267 532.451477,790.215332 532.868835,790.114380 
	C547.964661,786.459839 558.609924,776.429626 568.681091,765.464783 
	C574.714905,758.895691 581.327820,752.838074 587.112000,746.065125 
	C594.367493,737.569458 601.176697,728.679749 607.936401,719.776245 
	C621.478882,701.938843 635.002686,684.083679 648.260071,666.034546 
	C660.654846,649.159546 672.671387,632.007263 684.898254,615.008484 
	C695.693359,600.000366 706.635254,585.097107 717.353516,570.034546 
	C728.003174,555.068359 738.512451,540.001282 748.978271,524.905518 
	C761.832397,506.364990 775.002197,488.020935 787.166199,469.034973 
	C792.203369,461.172913 794.977905,451.863007 798.806274,443.222534 
	C799.248230,442.225067 799.849976,441.298431 800.688843,440.669495 
	C801.000000,557.917419 801.000000,674.834839 801.000000,792.000000 
	C711.645935,792.000000 622.291626,792.000000 532.468689,792.000000 
z"/>
<path fill="#000000" opacity="1.000000" stroke="none" 
	d="
M271.531342,1.000000 
	C271.915344,1.593250 271.940186,2.663791 271.730438,2.711924 
	C251.900681,7.262270 237.860641,20.131289 225.669388,35.301815 
	C209.660034,55.223499 193.960968,75.397926 178.334167,95.622589 
	C165.929871,111.676590 153.787064,127.933716 141.614456,144.165344 
	C126.355453,164.512512 111.161659,184.908691 95.982300,205.315399 
	C81.248726,225.122803 66.455452,244.887390 51.902901,264.827362 
	C40.948524,279.837097 30.400030,295.142395 19.544041,310.224823 
	C11.952261,320.772217 5.563055,331.854919 2.708658,344.698822 
	C2.623018,345.084198 1.991313,345.348236 1.307103,345.334412 
	C1.000000,230.414948 1.000000,115.829895 1.000000,1.000000 
	C91.020744,1.000000 181.041718,1.000000 271.531342,1.000000 
z"/>
<path fill="#000000" opacity="1.000000" stroke="none" 
	d="
M176.038040,282.859283 
	C189.385666,277.718048 202.684952,272.446747 216.091858,267.465027 
	C238.009018,259.321014 259.990265,251.349167 281.957153,243.339478 
	C289.726196,240.506683 297.521606,237.745087 305.325348,235.008972 
	C310.453125,233.211075 312.899628,229.772995 311.535797,226.087845 
	C310.024384,222.003876 305.992554,220.361374 300.986115,222.148834 
	C274.818329,231.491470 248.693802,240.955139 222.525711,250.296890 
	C207.498398,255.661499 192.419006,260.880402 177.352402,266.134308 
	C176.750900,266.344055 176.039612,266.238922 174.745209,266.634460 
	C171.882553,267.369141 169.575333,267.498444 167.437637,268.168518 
	C137.068100,277.687958 106.727379,287.299255 76.365433,296.842987 
	C68.466911,299.325745 60.519447,301.652802 52.102665,304.200226 
	C60.030159,293.360168 67.519165,283.039886 75.093040,272.782257 
	C85.949669,258.078674 96.909897,243.451477 107.744759,228.731964 
	C114.249512,219.895050 120.599884,210.944504 127.388535,202.140289 
	C128.165497,202.917252 128.827972,203.558533 128.943741,204.286728 
	C130.887451,216.511108 138.791931,220.474960 149.068771,218.083588 
	C157.650803,216.086609 164.016022,210.421463 170.663727,205.417191 
	C174.456635,202.561935 172.538361,197.018265 168.451309,194.279816 
	C163.938065,191.255844 161.853241,195.266068 159.021393,196.836502 
	C153.924286,199.663132 149.036484,202.867188 143.246536,206.412430 
	C142.741653,202.088211 141.457916,199.016129 142.271439,196.671814 
	C145.565674,187.178970 151.436188,179.568344 160.563339,174.777267 
	C174.336639,167.547318 189.707764,165.339996 204.347763,160.855713 
	C215.214462,157.527206 226.374008,155.153503 237.234634,151.807602 
	C239.167786,151.212051 241.836182,147.646545 241.517792,145.948944 
	C239.031586,132.693405 236.054672,119.519943 232.765549,106.437737 
	C232.357773,104.815826 229.347931,103.067223 227.338852,102.771889 
	C220.701813,101.796211 218.589249,106.461243 220.296143,113.356728 
	C222.517136,122.328972 224.384949,131.388641 226.383041,140.313644 
	C218.856628,142.466904 211.644974,144.578506 204.405457,146.589798 
	C193.802658,149.535522 183.182693,152.419708 172.564285,155.308945 
	C168.083160,156.528259 163.587341,157.693649 159.188263,158.564529 
	C162.749008,153.766617 166.280655,149.333405 169.679230,144.800446 
	C180.828232,129.930069 191.963562,115.049202 203.038239,100.123466 
	C213.910065,85.471107 224.753555,70.797104 235.508102,56.058609 
	C241.781769,47.460888 247.856567,38.718056 254.020844,30.040516 
	C255.539261,32.962784 257.482758,35.744335 258.504517,38.831001 
	C263.681183,54.469296 268.700531,70.161179 273.615906,85.884033 
	C278.245056,100.691216 282.542999,115.602509 287.230042,130.390854 
	C292.407867,146.727570 297.859283,162.977631 303.197662,179.263428 
	C306.120728,188.180756 309.035675,197.100800 311.994202,206.006363 
	C313.779663,211.380905 316.983521,213.665787 320.832489,212.417969 
	C325.129913,211.024765 326.578217,207.034622 324.794891,201.455551 
	C317.804382,179.586060 310.826691,157.712463 303.811676,135.850830 
	C296.041412,111.635437 288.232239,87.432533 280.446411,63.222130 
	C276.188538,49.982174 272.037750,36.706669 267.637726,23.514227 
	C266.270935,19.416265 267.853180,17.978306 271.567444,16.892979 
	C284.748962,13.041303 297.639313,15.250626 310.558136,18.210835 
	C338.174530,24.538841 365.818054,30.749151 393.421722,37.131863 
	C411.357605,41.279125 429.230560,45.697449 447.153656,49.900860 
	C471.336700,55.572384 495.563599,61.058201 519.729919,66.799591 
	C547.374878,73.367455 574.957214,80.199135 602.600342,86.774979 
	C616.223267,90.015656 629.921875,92.938370 644.635803,96.240517 
	C629.044556,102.473343 614.438416,108.333618 599.815735,114.152191 
	C583.901733,120.484596 567.962402,126.753342 552.052246,133.095322 
	C532.970093,140.701691 513.917480,148.381973 494.832947,155.982315 
	C476.166199,163.416245 457.474548,170.787796 438.795349,178.190430 
	C415.266602,187.514908 391.726105,196.809952 368.222870,206.198257 
	C363.611023,208.040436 359.046783,210.059326 354.644562,212.350220 
	C351.198334,214.143570 351.163513,217.647980 352.504333,220.567505 
	C354.089844,224.019699 357.593719,224.887817 361.015686,223.757721 
	C365.938324,222.132034 370.679993,219.962021 375.512207,218.058167 
	C397.589996,209.359665 419.694672,200.728897 441.746094,191.964127 
	C458.896698,185.147263 475.967468,178.129791 493.102234,171.272736 
	C511.014923,164.104355 528.954224,157.002243 546.895752,149.906464 
	C562.192627,143.856659 577.527466,137.902313 592.812317,131.822433 
	C608.535522,125.568207 624.224731,119.228531 639.916321,112.895279 
	C646.986511,110.041718 653.961304,106.932663 661.126831,104.348549 
	C662.860107,103.723488 665.750061,104.004997 667.121216,105.102516 
	C671.446594,108.564621 676.361084,112.003296 679.018372,116.619232 
	C681.281860,120.551094 681.309021,126.095261 681.336792,130.931824 
	C681.443115,149.446228 680.901489,167.965149 681.066528,186.478241 
	C681.300293,212.698761 682.133484,238.914017 682.353516,265.134521 
	C682.521301,285.127594 681.909973,305.126862 682.042908,325.120728 
	C682.295959,363.187347 682.851990,401.251892 683.232178,439.317810 
	C683.290344,445.147156 682.912476,450.982788 683.037476,456.809082 
	C683.193115,464.066986 683.734009,471.315765 683.970947,478.572998 
	C684.148315,484.009094 685.969238,486.305847 690.098816,486.805939 
	C694.924255,487.390289 697.283264,483.332550 697.805237,478.655914 
	C698.270508,474.487427 697.055603,470.162170 697.047668,465.905212 
	C696.975525,427.091156 697.168457,388.276031 696.957764,349.462952 
	C696.760193,313.063538 696.109619,276.666748 695.779541,240.267715 
	C695.666260,227.772873 695.959106,215.274826 695.994873,202.778046 
	C696.038025,187.694534 696.005127,172.610809 696.005127,158.780930 
	C712.768921,205.639313 730.033997,253.899063 747.319275,302.215149 
	C741.907837,302.950348 738.447266,303.270752 737.736511,312.052734 
	C732.138977,305.943298 726.829895,299.995453 721.343506,294.215942 
	C717.862122,290.548431 714.396118,290.350159 711.226562,293.343140 
	C707.767395,296.609680 708.350281,300.048187 711.200195,303.266388 
	C718.286011,311.267975 725.511536,319.145782 732.607605,327.138367 
	C736.505981,331.529205 739.840698,336.536591 744.247070,340.311829 
	C746.472107,342.218140 751.152283,343.449554 753.579590,342.383698 
	C756.731628,340.999603 757.885681,336.935699 756.382629,332.852844 
	C754.401062,327.470001 752.803406,321.945862 751.040649,316.482452 
	C751.529175,316.330444 752.017761,316.178436 752.506287,316.026459 
	C755.531738,324.676178 758.540405,333.331848 761.586060,341.974487 
	C768.775085,362.374695 776.137268,382.715515 783.131226,403.182281 
	C788.589233,419.154449 788.650146,435.170227 781.715271,450.806305 
	C780.879517,452.690643 778.811218,454.152893 777.068542,455.490936 
	C761.979309,467.076660 746.874390,478.642853 731.689697,490.103027 
	C722.660522,496.917603 713.359558,503.378296 704.466309,510.361694 
	C702.651855,511.786469 702.112671,514.835388 700.586548,517.567993 
	C696.113159,520.650208 692.318787,523.978760 687.902832,525.800232 
	C680.141785,529.001587 672.000366,531.280884 663.813843,533.640503 
	C659.755493,529.041504 655.457092,528.806396 650.747131,531.867737 
	C650.132019,532.267578 649.345703,532.412292 648.629333,532.646545 
	C634.075500,537.406982 619.520203,542.163269 604.555298,546.969360 
	C603.168030,547.063232 602.127808,546.904785 601.223083,547.184631 
	C592.544250,549.868896 583.893311,552.643188 575.224792,555.361206 
	C545.911987,564.552429 516.591431,573.718933 487.281281,582.918640 
	C462.933685,590.560852 438.623627,598.323730 414.248016,605.875061 
	C384.127228,615.206116 353.944336,624.336426 323.810608,633.625977 
	C305.370453,639.310608 286.972168,645.131042 268.197174,651.002380 
	C269.208405,642.004456 270.062408,633.324768 271.185394,624.679993 
	C272.679993,613.174133 274.494965,601.709717 275.967133,590.201233 
	C277.463745,578.501587 278.673370,566.765564 280.077728,555.053650 
	C281.714844,541.400696 283.426788,527.756653 285.468811,513.882202 
	C286.336823,508.792297 286.547058,503.876434 287.401123,499.075104 
	C290.410522,482.156433 293.677704,465.283844 296.777649,448.381012 
	C300.338348,428.965942 303.754974,409.524292 307.363342,390.118195 
	C311.106140,369.988800 315.064636,349.899536 318.816010,329.771698 
	C322.485229,310.084473 326.104462,290.386597 329.499542,270.651093 
	C329.995056,267.770721 329.833923,264.318024 328.625031,261.771881 
	C327.870422,260.182556 324.550690,258.967285 322.434387,259.043182 
	C317.965759,259.203522 316.882568,263.037598 316.158173,266.710175 
	C314.114746,277.069946 311.990417,287.416077 310.127289,297.808685 
	C306.000824,320.825897 302.177673,343.898407 297.927765,366.892334 
	C293.169342,392.637665 287.934418,418.294922 283.170746,444.039337 
	C278.912842,467.050476 275.121948,490.147766 270.926483,513.170837 
	C266.757568,536.048157 262.401459,558.891907 258.007446,581.727295 
	C255.871323,592.828552 253.461487,603.877014 251.102417,615.371460 
	C248.945038,628.173950 246.860794,640.554382 244.540649,654.336182 
	C242.289551,651.486877 240.956482,649.734924 239.553162,648.041199 
	C238.110703,646.300232 236.599701,644.616028 235.118698,642.906982 
	C231.745453,637.953430 228.514175,632.895569 224.967834,628.069214 
	C218.618591,619.428345 212.079666,610.926880 205.318954,601.831055 
	C204.308899,600.572754 203.599930,599.850586 202.890961,599.128418 
	C202.890961,599.128418 202.960907,599.031006 202.972458,598.716797 
	C201.953171,597.310425 200.922333,596.218384 199.891479,595.126282 
	C199.891495,595.126282 199.962021,595.028564 199.972763,594.715454 
	C198.952576,593.309875 197.921631,592.217407 196.890717,591.124878 
	C196.890717,591.124878 196.965302,591.025146 196.973175,590.713989 
	C195.950409,589.311218 194.919769,588.219482 193.889130,587.127808 
	C193.889145,587.127808 193.962601,587.028748 193.970871,586.698364 
	C192.988968,584.733093 192.118683,583.010071 190.990356,581.476929 
	C177.367645,562.966919 163.677887,544.506226 150.065201,525.988831 
	C139.624924,511.786896 129.320938,497.484619 118.863205,483.295654 
	C105.318359,464.918121 91.650398,446.631378 78.093102,428.262970 
	C67.340134,413.694061 56.652531,399.076752 45.976383,384.451416 
	C38.279636,373.907593 30.649422,363.315216 22.922646,352.652161 
	C23.742649,352.005920 24.310331,351.353271 25.026657,351.024811 
	C35.753124,346.106110 46.485981,341.200897 57.243473,336.350494 
	C77.266144,327.322449 97.296989,318.312408 117.342964,309.336273 
	C125.159485,305.836212 133.059387,302.521576 140.862076,298.991516 
	C152.614700,293.674500 164.315323,288.242462 176.038040,282.859283 
M463.030212,328.522491 
	C456.912354,323.508881 450.779907,318.513000 444.680054,313.477570 
	C435.230804,305.677277 425.860535,297.780304 416.353088,290.051849 
	C404.470123,280.392334 392.481537,270.862732 380.539581,261.275757 
	C373.560303,255.672821 366.673126,249.949814 359.569427,244.509415 
	C355.638123,241.498642 351.907043,241.995285 349.211792,245.290894 
	C347.040985,247.945297 347.585144,252.324951 350.828033,255.043106 
	C360.042938,262.766815 369.328705,270.408478 378.687073,277.957916 
	C392.100922,288.778900 405.661835,299.417908 419.050720,310.269440 
	C430.273651,319.365570 441.257660,328.756714 452.495087,337.834534 
	C469.408234,351.497375 486.535645,364.895599 503.411926,378.603363 
	C518.426514,390.799011 533.114441,403.397125 548.145630,415.571808 
	C564.801025,429.062012 581.749756,442.189545 598.446960,455.628723 
	C615.906738,469.681610 633.214111,483.923615 650.601196,498.066956 
	C653.653931,500.550201 659.049377,500.675659 660.932739,498.384644 
	C663.752563,494.954498 663.460571,491.628479 659.534058,488.082397 
	C654.560669,483.590851 649.447021,479.241730 644.226196,475.039520 
	C629.265381,462.997803 614.136230,451.164215 599.231323,439.054352 
	C584.293640,426.917938 569.640442,414.431061 554.689453,402.311371 
	C539.658081,390.126556 524.352661,378.280334 509.279053,366.146881 
	C493.988190,353.838531 478.833984,341.360382 463.030212,328.522491 
M443.366333,504.805420 
	C453.416504,503.648376 463.012878,501.503204 471.462372,495.259064 
	C480.769257,488.381348 485.416016,479.073578 486.948730,468.044098 
	C489.378754,450.557770 478.737274,439.608185 466.562103,430.080811 
	C456.342590,422.083710 444.677887,423.130463 432.965485,426.991608 
	C417.021484,432.247681 402.404297,450.690216 404.016113,467.249512 
	C404.373444,470.920685 405.057678,474.560059 405.636963,478.526337 
	C403.701874,478.382568 401.991821,478.166840 400.278992,478.142212 
	C386.379913,477.942352 377.501190,486.802429 370.133240,496.576508 
	C360.055878,509.944794 361.534729,524.271912 369.970612,538.235840 
	C377.561035,550.800232 398.146881,556.713379 411.476013,552.615906 
	C422.285309,549.292908 428.981934,541.430969 434.367157,531.984375 
	C439.153992,523.587585 440.681854,514.744080 439.040588,505.072449 
	C440.182037,504.971863 441.319611,504.871582 443.366333,504.805420 
M646.257202,254.244217 
	C638.788940,250.879623 631.220581,248.876236 622.778503,249.860855 
	C613.063965,250.993866 605.440308,255.084930 600.300049,263.291748 
	C595.674927,270.676270 591.505676,278.346344 587.138977,285.892609 
	C582.305542,294.245575 577.329224,302.520264 572.687256,310.978363 
	C568.224243,319.110474 565.533752,328.053467 566.198975,337.215424 
	C567.010010,348.385437 571.748535,358.188019 580.465698,365.752197 
	C590.112122,374.122711 604.364136,378.266205 617.493652,371.796570 
	C627.784973,366.725433 633.029480,358.038361 638.042664,348.697205 
	C643.962646,337.666321 649.803894,326.586456 656.027527,315.727386 
	C660.668457,307.630096 665.931580,300.190308 664.871155,289.844421 
	C663.408325,275.572540 660.817383,262.363586 646.257202,254.244217 
M209.602188,448.996826 
	C214.867599,450.617218 219.890671,449.716217 224.732285,447.427734 
	C236.067566,442.069977 239.867340,431.934845 242.063644,420.561279 
	C245.756805,401.436035 236.089981,380.549164 217.417175,373.443787 
	C199.439957,366.603180 181.306274,359.984528 162.827225,354.722687 
	C151.638229,351.536652 142.353363,354.313782 136.534271,364.515320 
	C129.669708,376.549683 128.541687,389.601501 131.996750,402.980530 
	C134.525620,412.773102 140.160980,420.068542 149.661438,424.124359 
	C159.071060,428.141388 168.404846,432.338074 177.844025,436.283386 
	C188.108139,440.573486 198.455353,444.664795 209.602188,448.996826 
M536.314331,214.849655 
	C539.356079,210.020798 543.857117,207.766251 549.436584,207.754745 
	C568.150818,207.716156 577.167969,223.261948 573.445007,240.156815 
	C571.925720,247.051071 568.795898,252.663925 561.265564,254.555893 
	C558.827942,255.168335 556.451050,256.018494 554.032471,256.711365 
	C541.768005,260.224854 529.425171,263.486542 517.254150,267.297394 
	C506.849945,270.555023 496.521301,274.135803 486.396362,278.168915 
	C481.361084,280.174622 480.763824,285.679749 484.778168,289.209686 
	C491.521820,295.139709 498.456665,300.855286 505.383606,306.573212 
	C514.165771,313.822571 522.984314,321.029053 531.861877,328.160980 
	C535.282288,330.908875 538.634583,330.388428 541.221069,326.927216 
	C543.717468,323.586517 543.593140,320.419495 540.087219,317.552124 
	C531.993469,310.932373 524.001282,304.188202 515.986816,297.471924 
	C511.850555,294.005676 507.754669,290.491241 502.775513,286.264191 
	C520.616272,280.890533 537.336792,275.839020 554.067688,270.821960 
	C561.471497,268.601776 569.606384,267.901215 575.588623,262.471954 
	C586.482300,252.585205 590.440186,239.961685 587.707825,225.658005 
	C584.918030,211.053726 576.781677,200.381683 562.170776,195.778229 
	C547.144470,191.043900 533.578796,194.810593 525.768555,205.907257 
	C523.290466,209.428131 522.948608,213.441650 526.078369,216.310974 
	C529.047791,219.033249 532.795288,218.505676 536.314331,214.849655 
M429.947571,92.708488 
	C430.708649,96.212372 431.456146,99.719284 432.233337,103.219589 
	C434.810089,114.824699 437.251801,126.462662 440.043396,138.015991 
	C441.408997,143.667709 443.774628,144.759293 449.515991,143.021469 
	C451.843750,142.316910 454.025024,141.130997 456.277374,140.174469 
	C469.521362,134.550034 482.810699,129.029160 495.989258,123.255402 
	C501.051178,121.037704 501.281586,114.719604 496.800629,111.625877 
	C493.133636,109.094170 489.899933,110.888710 486.605743,112.299690 
	C475.227570,117.173225 463.867676,122.089531 452.267395,127.090172 
	C451.508331,124.741470 450.640625,122.641983 450.155060,120.457542 
	C447.336853,107.779053 444.607391,95.080841 441.850555,82.388718 
	C440.675079,76.976990 438.353973,71.839470 433.469269,69.295425 
	C417.977020,61.226753 401.748840,56.778458 384.424438,63.090672 
	C376.990662,65.799202 370.589813,70.588516 368.319519,78.343086 
	C365.842102,86.805244 369.763428,93.862480 376.078949,99.615555 
	C380.281372,103.443710 383.438080,101.788132 386.624359,97.460976 
	C389.445679,93.629532 386.476440,91.545303 384.522919,88.985298 
	C380.165985,83.275772 380.970886,80.459038 387.309875,77.207207 
	C397.843140,71.803757 408.084747,74.433853 418.552246,77.581108 
	C426.013214,79.824402 429.171509,84.663795 429.947571,92.708488 
M731.786072,344.800415 
	C731.248596,343.434448 730.764038,342.044769 730.164368,340.706665 
	C727.788757,335.406006 721.766296,334.480286 718.495911,339.213135 
	C717.283020,340.968384 717.079102,343.675049 717.054626,345.954712 
	C716.922852,358.223907 716.992310,370.495239 716.992310,382.655945 
	C709.301208,385.129272 707.638123,390.474548 713.226013,395.527771 
	C717.054504,398.989929 718.522217,402.631775 718.079407,407.638275 
	C717.760132,411.248840 717.747925,415.045807 718.553162,418.539673 
	C719.075745,420.807007 720.913208,423.551788 722.904907,424.469696 
	C724.717651,425.305084 728.375671,424.769470 729.700867,423.384460 
	C731.483154,421.521698 731.806946,418.263336 732.850830,415.340485 
	C737.092590,419.592438 741.511841,424.034668 745.945557,428.462372 
	C748.715210,431.228210 751.667542,433.002655 755.605164,430.502563 
	C759.362549,428.116943 759.498901,425.099762 758.012512,421.209076 
	C755.723572,415.217590 753.951477,409.030945 751.843445,402.967621 
	C745.190552,383.832458 738.483459,364.716125 731.786072,344.800415 
M206.486328,205.993774 
	C216.841309,197.576218 227.248383,189.221603 237.529678,180.714996 
	C242.806290,176.349213 247.945633,171.806610 252.978806,167.161652 
	C255.950333,164.419296 255.034012,161.254486 252.787125,158.598602 
	C250.045593,155.358017 246.189835,155.050613 243.166382,157.496490 
	C225.952957,171.421570 208.924088,185.575806 191.891861,199.723602 
	C177.291306,211.851517 162.699936,223.993225 148.297821,236.354050 
	C146.358856,238.018158 144.151520,241.307480 144.588013,243.289291 
	C145.084442,245.543228 148.107727,247.999130 150.569992,248.902298 
	C155.559891,250.732574 160.859955,251.929520 166.132538,252.704895 
	C169.870026,253.254517 172.974792,251.964844 174.240311,247.475204 
	C175.495697,243.021454 172.893600,241.146851 170.002197,239.186584 
	C169.122208,238.589966 168.030899,238.305023 167.550507,238.098450 
	C180.376984,227.460724 193.112930,216.898071 206.486328,205.993774 
M169.419724,482.028320 
	C175.968445,484.652740 182.512039,487.290039 189.067032,489.898743 
	C200.490891,494.445160 211.883026,499.075531 223.370575,503.455383 
	C227.423233,505.000519 230.733749,503.154449 232.181351,499.210968 
	C233.352051,496.021820 231.488602,491.485138 228.177063,490.161072 
	C210.626785,483.143982 193.043381,476.209625 175.468765,469.253418 
	C165.551849,465.328217 155.618317,461.444733 145.714447,457.486908 
	C140.153854,455.264740 134.775391,452.414429 129.037827,450.889313 
	C126.620735,450.246826 122.837868,451.539185 120.822159,453.279602 
	C117.027679,456.555908 120.247154,460.053375 121.877449,463.327087 
	C125.832481,471.268951 130.508972,478.967529 133.379868,487.286926 
	C134.934723,491.792603 137.155731,493.351715 140.862091,492.843842 
	C144.371796,492.362915 147.374100,490.127441 146.529449,485.778229 
	C145.793579,481.989227 144.571701,478.296356 143.637909,474.542755 
	C143.433655,473.721680 143.540283,472.823303 143.503754,471.960510 
	C144.295883,472.040192 145.163864,471.936432 145.868500,472.227753 
	C153.481400,475.375519 161.068588,478.585419 169.419724,482.028320 
z"/>
<path fill="#848CA8" opacity="1.000000" stroke="none" 
	d="
M285.106262,514.108765 
	C283.426788,527.756653 281.714844,541.400696 280.077728,555.053650 
	C278.673370,566.765564 277.463745,578.501587 275.967133,590.201233 
	C274.494965,601.709717 272.679993,613.174133 271.185394,624.679993 
	C270.062408,633.324768 269.208405,642.004456 268.197174,651.002380 
	C286.972168,645.131042 305.370453,639.310608 323.810608,633.625977 
	C353.944336,624.336426 384.127228,615.206116 414.248016,605.875061 
	C438.623627,598.323730 462.933685,590.560852 487.281281,582.918640 
	C516.591431,573.718933 545.911987,564.552429 575.224792,555.361206 
	C583.893311,552.643188 592.544250,549.868896 601.223083,547.184631 
	C602.127808,546.904785 603.168030,547.063232 604.425598,547.322693 
	C594.606812,551.178406 584.536560,554.814209 574.403198,558.265015 
	C548.671387,567.027588 522.889465,575.643494 497.168823,584.438782 
	C473.326813,592.591553 449.538391,600.901001 425.726074,609.140625 
	C403.768280,616.738525 381.820068,624.364258 359.849030,631.923645 
	C342.384766,637.932434 324.891907,643.858093 307.412720,649.823486 
	C295.860748,653.765930 284.261139,657.576538 272.780670,661.717407 
	C267.241882,663.715210 265.673340,666.813721 267.155029,671.102539 
	C268.405792,674.722961 272.127289,675.935608 277.321136,674.307556 
	C281.094330,673.124878 284.842316,671.858093 288.580139,670.566711 
	C321.314728,659.257507 354.040924,647.924011 386.776764,636.618347 
	C417.309906,626.073608 447.842102,615.525940 478.392487,605.031250 
	C510.672363,593.942444 542.974182,582.917603 575.264587,571.859436 
	C602.395386,562.568237 629.509766,553.228271 656.665527,544.010498 
	C661.638245,542.322510 664.784668,539.655029 664.018250,533.946350 
	C672.000366,531.280884 680.141785,529.001587 687.902832,525.800232 
	C692.318787,523.978760 696.113159,520.650208 700.536743,517.949158 
	C704.328247,524.155151 708.316833,524.880737 714.050598,520.496216 
	C726.489319,510.984375 738.978027,501.537750 751.480957,492.110443 
	C752.282898,491.505798 753.380920,491.293945 755.122498,491.729126 
	C751.210999,497.496826 747.379944,503.321014 743.372437,509.021240 
	C732.657837,524.261963 721.937195,539.499390 711.092346,554.647461 
	C690.083862,583.992249 669.017883,613.296021 647.916077,642.573792 
	C638.382507,655.801208 628.706055,668.925598 618.649170,682.127197 
	C618.203918,682.157654 617.927246,681.942322 617.927246,681.942322 
	C621.951172,673.983215 625.859558,665.963074 630.024780,658.078613 
	C637.130493,644.627869 644.392700,631.259705 651.597717,617.861389 
	C663.344849,596.016846 675.089478,574.170837 686.858093,552.337830 
	C689.201843,547.989624 688.422974,543.439880 684.879211,541.421814 
	C680.932068,539.174011 677.984680,540.336853 675.133423,545.619385 
	C665.394653,563.662415 655.707520,581.733459 646.053162,599.821777 
	C629.699036,630.462952 613.361816,661.113159 597.062744,691.783630 
	C587.605408,709.579712 578.236633,727.422852 568.825562,745.243530 
	C568.671692,745.534973 568.536255,745.861572 568.307312,746.084290 
	C560.016113,754.148682 552.163452,762.753418 543.230591,770.031982 
	C538.570862,773.828796 532.050232,775.397644 526.266174,777.713196 
	C525.052979,778.198853 523.276672,777.848755 521.940979,777.374084 
	C489.144836,765.720825 456.415161,753.879333 423.585876,742.320740 
	C387.796509,729.719971 351.911713,717.390503 316.082672,704.902283 
	C298.947235,698.929688 281.871124,692.785034 264.692596,686.940308 
	C262.583405,686.222717 259.517700,686.075806 257.780670,687.127136 
	C255.997391,688.206726 254.001389,691.426208 254.442795,693.085754 
	C255.052643,695.378723 257.500824,698.045410 259.779297,698.894104 
	C276.625549,705.169556 293.617981,711.053650 310.578156,717.021851 
	C355.858093,732.955688 401.144836,748.870422 446.429779,764.790283 
	C447.031555,765.001831 447.644714,765.181091 448.127594,765.808167 
	C364.575409,745.002991 281.622772,722.081360 198.767365,696.008911 
	C208.070480,696.008911 216.440643,696.101990 224.807571,695.977051 
	C230.641296,695.889893 234.028961,691.718323 231.722809,687.033875 
	C230.804138,685.167908 227.888641,683.257202 225.799515,683.160950 
	C211.533325,682.503357 197.167953,681.243469 182.983200,682.257385 
	C164.498688,683.578674 152.810425,674.204163 145.172379,659.669678 
	C131.264328,633.204102 118.707977,606.028198 105.591560,579.146790 
	C104.722969,577.366638 103.887398,575.570374 103.121117,573.312561 
	C103.205765,572.843506 103.485985,572.631531 103.485992,572.631531 
	C109.912651,579.922729 116.443359,587.125427 122.739677,594.527466 
	C130.652939,603.830444 138.373215,613.297546 146.179001,622.691895 
	C150.925781,628.404785 155.770966,634.039124 160.396729,639.848267 
	C164.287491,644.734314 168.208832,646.288635 171.688354,643.582031 
	C174.281586,641.564880 175.958298,639.097534 174.186172,635.416870 
	C167.584274,621.704895 161.585251,607.677917 154.410416,594.277588 
	C151.126205,588.143677 145.923721,582.916382 141.047180,577.796021 
	C137.567322,574.142273 132.618607,575.653870 129.078125,580.925415 
	C120.059387,570.354187 111.100479,559.847351 102.133179,549.347595 
	C100.525230,547.464905 99.158607,545.209229 97.181526,543.853577 
	C95.026512,542.375977 92.290588,541.745544 89.807907,540.745789 
	C89.389839,541.227234 88.971779,541.708740 88.553711,542.190247 
	C85.184700,535.012573 81.815689,527.834900 78.446678,520.657227 
	C79.053604,520.123596 79.660522,519.589966 80.267448,519.056396 
	C89.200691,528.565002 97.990829,538.213745 107.114647,547.535828 
	C113.821541,554.388367 120.980202,560.797852 127.907104,567.436523 
	C130.816574,570.224915 133.939011,571.001282 137.171082,568.225098 
	C140.425903,565.429443 140.809631,562.260437 138.153519,558.609192 
	C132.430695,550.742371 126.886177,542.745789 121.280830,534.793701 
	C120.712502,533.987427 120.143425,533.163147 119.715851,532.278992 
	C115.761581,524.102417 114.109085,523.495972 104.707870,528.151611 
	C97.715393,520.652710 90.289131,512.814331 83.016495,504.835968 
	C79.408058,500.877380 75.489891,499.692902 70.082390,502.922028 
	C52.777237,463.907959 35.543678,425.055298 18.310122,386.202667 
	C18.788738,385.953064 19.267355,385.703461 19.745970,385.453857 
	C26.821123,394.620209 33.877190,403.801392 40.975418,412.949860 
	C55.532894,431.712067 70.138649,450.436890 84.674377,469.215912 
	C93.760506,480.954498 102.710258,492.798676 111.801765,504.533051 
	C124.425468,520.826416 137.185257,537.014526 149.771561,553.336548 
	C159.032257,565.345825 168.029205,577.558472 177.284821,589.571716 
	C192.180908,608.906006 207.166779,628.171387 222.175278,647.418701 
	C226.020706,652.350159 232.054520,650.469604 234.976929,643.246460 
	C236.599701,644.616028 238.110703,646.300232 239.553162,648.041199 
	C240.956482,649.734924 242.289551,651.486877 244.540649,654.336182 
	C246.860794,640.554382 248.945038,628.173950 251.366440,615.620239 
	C252.423553,619.286621 253.041946,623.008789 258.355988,623.077148 
	C263.408813,623.142151 264.816193,619.943054 265.537933,615.949524 
	C266.531616,610.451477 267.328674,604.917480 268.353455,599.425659 
	C272.211090,578.752808 276.067169,558.079346 280.051483,537.430786 
	C281.558167,529.622375 283.411163,521.880798 285.106262,514.108765 
M438.189972,704.611084 
	C457.424164,708.781860 472.850403,700.369873 487.687012,689.479797 
	C488.492065,692.286255 488.942474,695.096069 490.093140,697.581726 
	C491.890930,701.465088 490.557495,704.074585 487.243103,705.863098 
	C481.724152,708.841309 476.255127,712.053162 470.426971,714.282898 
	C462.418243,717.346924 454.246094,716.960815 446.373383,713.150330 
	C442.247620,711.153381 438.921967,712.348694 436.907410,716.315918 
	C434.839111,720.388916 436.642456,723.519897 440.155762,724.848755 
	C445.947693,727.039307 452.014526,729.418396 458.081909,729.783508 
	C472.856415,730.672852 485.151825,723.408997 496.842468,715.483582 
	C501.863403,712.079712 505.955811,707.045654 504.542694,700.461731 
	C502.510925,690.995605 500.017731,681.564819 496.838074,672.426331 
	C493.526703,662.909363 486.829071,655.732727 476.973419,653.038940 
	C460.638580,648.574219 444.769714,649.827454 430.983887,660.736755 
	C424.749023,665.670593 418.820160,671.502319 418.099945,680.068481 
	C417.135406,691.541138 424.328278,700.108459 438.189972,704.611084 
M539.495483,685.994324 
	C540.752625,688.513245 541.822571,691.148987 543.306274,693.526550 
	C546.287109,698.303101 552.589783,698.545654 554.932678,693.470642 
	C558.327759,686.116516 563.909790,681.531494 570.586182,677.604187 
	C573.505920,675.886658 574.799316,673.135498 572.872498,669.542480 
	C570.530029,665.174194 566.180176,664.158020 561.192627,667.482788 
	C557.264771,670.101196 553.609131,673.127869 549.674133,676.092590 
	C548.665466,674.166138 547.800537,672.575378 546.990356,670.957214 
	C540.316345,657.627319 533.742371,644.245911 526.889160,631.008972 
	C525.861572,629.024231 523.742676,626.774902 521.761719,626.347229 
	C519.790527,625.921570 516.024780,627.082703 515.421204,628.535095 
	C514.367981,631.069702 514.146973,634.831970 515.301514,637.259583 
	C522.983398,653.411255 531.122803,669.345398 539.495483,685.994324 
z"/>
<path fill="#858EA8" opacity="1.000000" stroke="none" 
	d="
M254.116745,29.721621 
	C247.856567,38.718056 241.781769,47.460888 235.508102,56.058609 
	C224.753555,70.797104 213.910065,85.471107 203.038239,100.123466 
	C191.963562,115.049202 180.828232,129.930069 169.679230,144.800446 
	C166.280655,149.333405 162.749008,153.766617 158.876892,158.739685 
	C154.391861,162.126129 150.019913,164.690155 146.280655,167.974503 
	C136.532379,176.536774 128.373856,186.129883 128.337845,200.194992 
	C128.336258,200.812790 127.478561,201.428406 127.019653,202.045029 
	C120.599884,210.944504 114.249512,219.895050 107.744759,228.731964 
	C96.909897,243.451477 85.949669,258.078674 75.093040,272.782257 
	C67.519165,283.039886 60.030159,293.360168 52.102665,304.200226 
	C60.519447,301.652802 68.466911,299.325745 76.365433,296.842987 
	C106.727379,287.299255 137.068100,277.687958 167.437637,268.168518 
	C169.575333,267.498444 171.882553,267.369141 174.524002,266.955200 
	C170.925156,268.651825 166.990189,270.594269 162.889343,272.078278 
	C125.878838,285.471741 88.833778,298.769653 51.814781,312.139709 
	C46.861084,313.928864 42.023823,316.039642 37.075310,317.844269 
	C35.314529,318.486420 33.383450,318.661591 30.007746,319.368896 
	C35.806446,311.042419 40.642921,303.871552 45.708832,296.866577 
	C59.766743,277.427887 73.811417,257.977936 88.065697,238.683411 
	C103.034019,218.422348 118.220634,198.322311 133.345978,178.177536 
	C150.844055,154.872589 168.272675,131.514359 185.931793,108.331871 
	C200.399582,89.338890 214.872833,70.335632 229.918152,51.803333 
	C237.068146,42.996235 245.553818,35.273026 253.452393,27.076130 
	C253.725876,26.792324 254.193253,26.695354 255.125519,26.240229 
	C254.721436,27.640137 254.467041,28.521429 254.116745,29.721621 
z"/>
<path fill="#858FA8" opacity="1.000000" stroke="none" 
	d="
M175.803619,282.604553 
	C164.315323,288.242462 152.614700,293.674500 140.862076,298.991516 
	C133.059387,302.521576 125.159485,305.836212 117.342964,309.336273 
	C97.296989,318.312408 77.266144,327.322449 57.243473,336.350494 
	C46.485981,341.200897 35.753124,346.106110 25.026657,351.024811 
	C24.310331,351.353271 23.742649,352.005920 22.922646,352.652161 
	C30.649422,363.315216 38.279636,373.907593 45.976383,384.451416 
	C56.652531,399.076752 67.340134,413.694061 78.093102,428.262970 
	C91.650398,446.631378 105.318359,464.918121 118.863205,483.295654 
	C129.320938,497.484619 139.624924,511.786896 150.065201,525.988831 
	C163.677887,544.506226 177.367645,562.966919 190.990356,581.476929 
	C192.118683,583.010071 192.988968,584.733093 193.921936,586.735840 
	C190.604187,583.549072 187.093109,580.190552 184.127625,576.404663 
	C172.971771,562.162231 161.970810,547.798157 150.956024,533.445679 
	C141.552551,521.192749 132.272583,508.844727 122.824867,496.626221 
	C109.632095,479.564362 96.315575,462.598267 83.087570,445.563568 
	C74.000969,433.862122 64.945419,422.136292 55.928585,410.380981 
	C43.001694,393.528137 30.261482,376.529114 17.116190,359.848969 
	C14.189942,356.135834 15.546889,352.920319 15.867144,349.189911 
	C16.524868,341.528534 20.425755,337.580994 27.667389,335.017731 
	C65.407784,321.659119 102.970879,307.800537 140.640396,294.240143 
	C152.210709,290.075012 163.922287,286.302246 175.803619,282.604553 
z"/>
<path fill="#858FA8" opacity="1.000000" stroke="none" 
	d="
M193.839813,587.485229 
	C194.919769,588.219482 195.950409,589.311218 196.924194,590.752441 
	C195.841736,590.015564 194.816116,588.929077 193.839813,587.485229 
z"/>
<path fill="#858FA8" opacity="1.000000" stroke="none" 
	d="
M196.841858,591.481628 
	C197.921631,592.217407 198.952576,593.309875 199.925049,594.752258 
	C198.842056,594.014221 197.817535,592.926331 196.841858,591.481628 
z"/>
<path fill="#858FA8" opacity="1.000000" stroke="none" 
	d="
M199.866119,595.479431 
	C200.922333,596.218384 201.953171,597.310425 202.924683,598.753052 
	C201.857178,598.013184 200.848969,596.922913 199.866119,595.479431 
z"/>
<path fill="#858FA8" opacity="1.000000" stroke="none" 
	d="
M202.851715,599.454834 
	C203.599930,599.850586 204.308899,600.572754 205.034973,601.636963 
	C204.305527,601.246460 203.558990,600.513855 202.851715,599.454834 
z"/>
<path fill="#848CA8" opacity="1.000000" stroke="none" 
	d="
M103.066818,572.951050 
	C102.732887,572.602600 102.537903,572.146729 102.342911,571.690796 
	C102.653717,571.851807 102.964539,572.012817 103.380676,572.402710 
	C103.485985,572.631531 103.205765,572.843506 103.066818,572.951050 
z"/>
<path fill="#848CA8" opacity="1.000000" stroke="none" 
	d="
M618.343140,682.264160 
	C618.119141,682.702454 617.755859,683.034180 617.392578,683.365967 
	C617.419556,682.979309 617.446594,682.592712 617.700439,682.074219 
	C617.927246,681.942322 618.203918,682.157654 618.343140,682.264160 
z"/>
<path fill="#848CA8" opacity="1.000000" stroke="none" 
	d="
M757.761902,488.048401 
	C757.493713,488.297821 757.235901,488.304535 756.978088,488.311279 
	C757.006470,488.151886 756.998474,487.877197 757.070068,487.854675 
	C757.287659,487.786072 757.535950,487.814850 757.761902,488.048401 
z"/>
<path fill="#EBEAE4" opacity="1.000000" stroke="none" 
	d="
M663.813843,533.640503 
	C664.784668,539.655029 661.638245,542.322510 656.665527,544.010498 
	C629.509766,553.228271 602.395386,562.568237 575.264587,571.859436 
	C542.974182,582.917603 510.672363,593.942444 478.392487,605.031250 
	C447.842102,615.525940 417.309906,626.073608 386.776764,636.618347 
	C354.040924,647.924011 321.314728,659.257507 288.580139,670.566711 
	C284.842316,671.858093 281.094330,673.124878 277.321136,674.307556 
	C272.127289,675.935608 268.405792,674.722961 267.155029,671.102539 
	C265.673340,666.813721 267.241882,663.715210 272.780670,661.717407 
	C284.261139,657.576538 295.860748,653.765930 307.412720,649.823486 
	C324.891907,643.858093 342.384766,637.932434 359.849030,631.923645 
	C381.820068,624.364258 403.768280,616.738525 425.726074,609.140625 
	C449.538391,600.901001 473.326813,592.591553 497.168823,584.438782 
	C522.889465,575.643494 548.671387,567.027588 574.403198,558.265015 
	C584.536560,554.814209 594.606812,551.178406 604.835571,547.273682 
	C619.520203,542.163269 634.075500,537.406982 648.629333,532.646545 
	C649.345703,532.412292 650.132019,532.267578 650.747131,531.867737 
	C655.457092,528.806396 659.755493,529.041504 663.813843,533.640503 
z"/>
<path fill="#E6E5E1" opacity="1.000000" stroke="none" 
	d="
M463.325073,328.739563 
	C478.833984,341.360382 493.988190,353.838531 509.279053,366.146881 
	C524.352661,378.280334 539.658081,390.126556 554.689453,402.311371 
	C569.640442,414.431061 584.293640,426.917938 599.231323,439.054352 
	C614.136230,451.164215 629.265381,462.997803 644.226196,475.039520 
	C649.447021,479.241730 654.560669,483.590851 659.534058,488.082397 
	C663.460571,491.628479 663.752563,494.954498 660.932739,498.384644 
	C659.049377,500.675659 653.653931,500.550201 650.601196,498.066956 
	C633.214111,483.923615 615.906738,469.681610 598.446960,455.628723 
	C581.749756,442.189545 564.801025,429.062012 548.145630,415.571808 
	C533.114441,403.397125 518.426514,390.799011 503.411926,378.603363 
	C486.535645,364.895599 469.408234,351.497375 452.495087,337.834534 
	C441.257660,328.756714 430.273651,319.365570 419.050720,310.269440 
	C405.661835,299.417908 392.100922,288.778900 378.687073,277.957916 
	C369.328705,270.408478 360.042938,262.766815 350.828033,255.043106 
	C347.585144,252.324951 347.040985,247.945297 349.211792,245.290894 
	C351.907043,241.995285 355.638123,241.498642 359.569427,244.509415 
	C366.673126,249.949814 373.560303,255.672821 380.539581,261.275757 
	C392.481537,270.862732 404.470123,280.392334 416.353088,290.051849 
	C425.860535,297.780304 435.230804,305.677277 444.680054,313.477570 
	C450.779907,318.513000 456.912354,323.508881 463.325073,328.739563 
z"/>
<path fill="#E6E5E1" opacity="1.000000" stroke="none" 
	d="
M442.911743,504.788391 
	C441.319611,504.871582 440.182037,504.971863 439.040588,505.072449 
	C440.681854,514.744080 439.153992,523.587585 434.367157,531.984375 
	C428.981934,541.430969 422.285309,549.292908 411.476013,552.615906 
	C398.146881,556.713379 377.561035,550.800232 369.970612,538.235840 
	C361.534729,524.271912 360.055878,509.944794 370.133240,496.576508 
	C377.501190,486.802429 386.379913,477.942352 400.278992,478.142212 
	C401.991821,478.166840 403.701874,478.382568 405.636963,478.526337 
	C405.057678,474.560059 404.373444,470.920685 404.016113,467.249512 
	C402.404297,450.690216 417.021484,432.247681 432.965485,426.991608 
	C444.677887,423.130463 456.342590,422.083710 466.562103,430.080811 
	C478.737274,439.608185 489.378754,450.557770 486.948730,468.044098 
	C485.416016,479.073578 480.769257,488.381348 471.462372,495.259064 
	C463.012878,501.503204 453.416504,503.648376 442.911743,504.788391 
M473.258240,464.440155 
	C472.549286,461.465973 472.579132,457.991425 470.975220,455.623413 
	C467.786163,450.914886 464.241302,446.109894 459.805176,442.692596 
	C456.391876,440.063141 451.287872,438.005981 447.113617,438.291870 
	C434.732849,439.139862 423.014771,445.529663 418.438171,460.977203 
	C414.952423,472.742798 425.225891,488.886597 437.388000,490.081665 
	C439.864349,490.324982 442.393677,490.186371 444.889221,490.051605 
	C463.346863,489.054504 471.483063,479.337067 473.258240,464.440155 
M418.627625,496.813477 
	C417.495087,495.864807 416.505127,494.599945 415.208466,494.015198 
	C397.861816,486.192841 376.715668,499.813873 377.679810,517.984009 
	C378.475159,532.972534 394.986938,545.292358 408.717743,539.569458 
	C424.625000,532.939392 429.967682,511.315430 418.627625,496.813477 
z"/>
<path fill="#E6E5E1" opacity="1.000000" stroke="none" 
	d="
M285.468811,513.882202 
	C283.411163,521.880798 281.558167,529.622375 280.051483,537.430786 
	C276.067169,558.079346 272.211090,578.752808 268.353455,599.425659 
	C267.328674,604.917480 266.531616,610.451477 265.537933,615.949524 
	C264.816193,619.943054 263.408813,623.142151 258.355988,623.077148 
	C253.041946,623.008789 252.423553,619.286621 251.439575,615.198181 
	C253.461487,603.877014 255.871323,592.828552 258.007446,581.727295 
	C262.401459,558.891907 266.757568,536.048157 270.926483,513.170837 
	C275.121948,490.147766 278.912842,467.050476 283.170746,444.039337 
	C287.934418,418.294922 293.169342,392.637665 297.927765,366.892334 
	C302.177673,343.898407 306.000824,320.825897 310.127289,297.808685 
	C311.990417,287.416077 314.114746,277.069946 316.158173,266.710175 
	C316.882568,263.037598 317.965759,259.203522 322.434387,259.043182 
	C324.550690,258.967285 327.870422,260.182556 328.625031,261.771881 
	C329.833923,264.318024 329.995056,267.770721 329.499542,270.651093 
	C326.104462,290.386597 322.485229,310.084473 318.816010,329.771698 
	C315.064636,349.899536 311.106140,369.988800 307.363342,390.118195 
	C303.754974,409.524292 300.338348,428.965942 296.777649,448.381012 
	C293.677704,465.283844 290.410522,482.156433 287.401123,499.075104 
	C286.547058,503.876434 286.336823,508.792297 285.468811,513.882202 
z"/>
<path fill="#E7E6E1" opacity="1.000000" stroke="none" 
	d="
M646.572815,254.463837 
	C660.817383,262.363586 663.408325,275.572540 664.871155,289.844421 
	C665.931580,300.190308 660.668457,307.630096 656.027527,315.727386 
	C649.803894,326.586456 643.962646,337.666321 638.042664,348.697205 
	C633.029480,358.038361 627.784973,366.725433 617.493652,371.796570 
	C604.364136,378.266205 590.112122,374.122711 580.465698,365.752197 
	C571.748535,358.188019 567.010010,348.385437 566.198975,337.215424 
	C565.533752,328.053467 568.224243,319.110474 572.687256,310.978363 
	C577.329224,302.520264 582.305542,294.245575 587.138977,285.892609 
	C591.505676,278.346344 595.674927,270.676270 600.300049,263.291748 
	C605.440308,255.084930 613.063965,250.993866 622.778503,249.860855 
	C631.220581,248.876236 638.788940,250.879623 646.572815,254.463837 
M616.957825,355.549622 
	C621.345764,348.362701 625.809509,341.220703 630.100403,333.976288 
	C634.396484,326.723083 638.733215,319.480103 642.663086,312.027466 
	C647.223938,303.378296 652.272156,295.394714 650.575745,284.206299 
	C647.652832,264.928772 631.486755,260.103119 617.068726,266.016693 
	C610.016785,268.909027 608.783203,276.995483 605.099426,282.815582 
	C600.043152,290.804169 595.332764,299.032501 590.868835,307.369476 
	C586.036194,316.395294 580.349609,324.769379 580.660034,336.171967 
	C580.965393,347.389984 589.078003,356.577911 597.488770,360.037384 
	C604.716736,363.010315 610.764038,360.521545 616.957825,355.549622 
z"/>
<path fill="#E5E5E1" opacity="1.000000" stroke="none" 
	d="
M209.184265,448.919800 
	C198.455353,444.664795 188.108139,440.573486 177.844025,436.283386 
	C168.404846,432.338074 159.071060,428.141388 149.661438,424.124359 
	C140.160980,420.068542 134.525620,412.773102 131.996750,402.980530 
	C128.541687,389.601501 129.669708,376.549683 136.534271,364.515320 
	C142.353363,354.313782 151.638229,351.536652 162.827225,354.722687 
	C181.306274,359.984528 199.439957,366.603180 217.417175,373.443787 
	C236.089981,380.549164 245.756805,401.436035 242.063644,420.561279 
	C239.867340,431.934845 236.067566,442.069977 224.732285,447.427734 
	C219.890671,449.716217 214.867599,450.617218 209.184265,448.919800 
M163.460327,415.315369 
	C178.706909,421.600067 193.964081,427.859283 209.194611,434.182648 
	C214.930389,436.564026 218.652267,436.327057 222.507507,431.797333 
	C224.782013,429.124939 226.205902,425.545502 227.385757,422.155884 
	C232.834259,406.502777 223.472260,391.436554 215.022400,387.455353 
	C206.297348,383.344452 197.367233,379.564972 188.267502,376.381897 
	C178.899216,373.104858 169.210739,370.747101 159.676559,367.938904 
	C154.370850,366.376221 149.055969,367.839478 147.609619,372.920563 
	C145.686951,379.674896 144.786591,386.862366 144.548386,393.901001 
	C144.404770,398.144836 144.393997,403.284637 148.663834,406.250885 
	C153.198074,409.400909 158.024826,412.129883 163.460327,415.315369 
z"/>
<path fill="#E5E5E1" opacity="1.000000" stroke="none" 
	d="
M536.026367,215.092133 
	C532.795288,218.505676 529.047791,219.033249 526.078369,216.310974 
	C522.948608,213.441650 523.290466,209.428131 525.768555,205.907257 
	C533.578796,194.810593 547.144470,191.043900 562.170776,195.778229 
	C576.781677,200.381683 584.918030,211.053726 587.707825,225.658005 
	C590.440186,239.961685 586.482300,252.585205 575.588623,262.471954 
	C569.606384,267.901215 561.471497,268.601776 554.067688,270.821960 
	C537.336792,275.839020 520.616272,280.890533 502.775513,286.264191 
	C507.754669,290.491241 511.850555,294.005676 515.986816,297.471924 
	C524.001282,304.188202 531.993469,310.932373 540.087219,317.552124 
	C543.593140,320.419495 543.717468,323.586517 541.221069,326.927216 
	C538.634583,330.388428 535.282288,330.908875 531.861877,328.160980 
	C522.984314,321.029053 514.165771,313.822571 505.383606,306.573212 
	C498.456665,300.855286 491.521820,295.139709 484.778168,289.209686 
	C480.763824,285.679749 481.361084,280.174622 486.396362,278.168915 
	C496.521301,274.135803 506.849945,270.555023 517.254150,267.297394 
	C529.425171,263.486542 541.768005,260.224854 554.032471,256.711365 
	C556.451050,256.018494 558.827942,255.168335 561.265564,254.555893 
	C568.795898,252.663925 571.925720,247.051071 573.445007,240.156815 
	C577.167969,223.261948 568.150818,207.716156 549.436584,207.754745 
	C543.857117,207.766251 539.356079,210.020798 536.026367,215.092133 
z"/>
<path fill="#E6E6E1" opacity="1.000000" stroke="none" 
	d="
M127.388535,202.140289 
	C127.478561,201.428406 128.336258,200.812790 128.337845,200.194992 
	C128.373856,186.129883 136.532379,176.536774 146.280655,167.974503 
	C150.019913,164.690155 154.391861,162.126129 158.786850,159.058716 
	C163.587341,157.693649 168.083160,156.528259 172.564285,155.308945 
	C183.182693,152.419708 193.802658,149.535522 204.405457,146.589798 
	C211.644974,144.578506 218.856628,142.466904 226.383041,140.313644 
	C224.384949,131.388641 222.517136,122.328972 220.296143,113.356728 
	C218.589249,106.461243 220.701813,101.796211 227.338852,102.771889 
	C229.347931,103.067223 232.357773,104.815826 232.765549,106.437737 
	C236.054672,119.519943 239.031586,132.693405 241.517792,145.948944 
	C241.836182,147.646545 239.167786,151.212051 237.234634,151.807602 
	C226.374008,155.153503 215.214462,157.527206 204.347763,160.855713 
	C189.707764,165.339996 174.336639,167.547318 160.563339,174.777267 
	C151.436188,179.568344 145.565674,187.178970 142.271439,196.671814 
	C141.457916,199.016129 142.741653,202.088211 143.246536,206.412430 
	C149.036484,202.867188 153.924286,199.663132 159.021393,196.836502 
	C161.853241,195.266068 163.938065,191.255844 168.451309,194.279816 
	C172.538361,197.018265 174.456635,202.561935 170.663727,205.417191 
	C164.016022,210.421463 157.650803,216.086609 149.068771,218.083588 
	C138.791931,220.474960 130.887451,216.511108 128.943741,204.286728 
	C128.827972,203.558533 128.165497,202.917252 127.388535,202.140289 
z"/>
<path fill="#E5E5E1" opacity="1.000000" stroke="none" 
	d="
M429.715668,92.351227 
	C429.171509,84.663795 426.013214,79.824402 418.552246,77.581108 
	C408.084747,74.433853 397.843140,71.803757 387.309875,77.207207 
	C380.970886,80.459038 380.165985,83.275772 384.522919,88.985298 
	C386.476440,91.545303 389.445679,93.629532 386.624359,97.460976 
	C383.438080,101.788132 380.281372,103.443710 376.078949,99.615555 
	C369.763428,93.862480 365.842102,86.805244 368.319519,78.343086 
	C370.589813,70.588516 376.990662,65.799202 384.424438,63.090672 
	C401.748840,56.778458 417.977020,61.226753 433.469269,69.295425 
	C438.353973,71.839470 440.675079,76.976990 441.850555,82.388718 
	C444.607391,95.080841 447.336853,107.779053 450.155060,120.457542 
	C450.640625,122.641983 451.508331,124.741470 452.267395,127.090172 
	C463.867676,122.089531 475.227570,117.173225 486.605743,112.299690 
	C489.899933,110.888710 493.133636,109.094170 496.800629,111.625877 
	C501.281586,114.719604 501.051178,121.037704 495.989258,123.255402 
	C482.810699,129.029160 469.521362,134.550034 456.277374,140.174469 
	C454.025024,141.130997 451.843750,142.316910 449.515991,143.021469 
	C443.774628,144.759293 441.408997,143.667709 440.043396,138.015991 
	C437.251801,126.462662 434.810089,114.824699 432.233337,103.219589 
	C431.456146,99.719284 430.708649,96.212372 429.715668,92.351227 
z"/>
<path fill="#E7E6E1" opacity="1.000000" stroke="none" 
	d="
M731.791748,345.196472 
	C738.483459,364.716125 745.190552,383.832458 751.843445,402.967621 
	C753.951477,409.030945 755.723572,415.217590 758.012512,421.209076 
	C759.498901,425.099762 759.362549,428.116943 755.605164,430.502563 
	C751.667542,433.002655 748.715210,431.228210 745.945557,428.462372 
	C741.511841,424.034668 737.092590,419.592438 732.850830,415.340485 
	C731.806946,418.263336 731.483154,421.521698 729.700867,423.384460 
	C728.375671,424.769470 724.717651,425.305084 722.904907,424.469696 
	C720.913208,423.551788 719.075745,420.807007 718.553162,418.539673 
	C717.747925,415.045807 717.760132,411.248840 718.079407,407.638275 
	C718.522217,402.631775 717.054504,398.989929 713.226013,395.527771 
	C707.638123,390.474548 709.301208,385.129272 716.992310,382.655945 
	C716.992310,370.495239 716.922852,358.223907 717.054626,345.954712 
	C717.079102,343.675049 717.283020,340.968384 718.495911,339.213135 
	C721.766296,334.480286 727.788757,335.406006 730.164368,340.706665 
	C730.764038,342.044769 731.248596,343.434448 731.791748,345.196472 
z"/>
<path fill="#E6E5E1" opacity="1.000000" stroke="none" 
	d="
M206.167603,206.164581 
	C193.112930,216.898071 180.376984,227.460724 167.550507,238.098450 
	C168.030899,238.305023 169.122208,238.589966 170.002197,239.186584 
	C172.893600,241.146851 175.495697,243.021454 174.240311,247.475204 
	C172.974792,251.964844 169.870026,253.254517 166.132538,252.704895 
	C160.859955,251.929520 155.559891,250.732574 150.569992,248.902298 
	C148.107727,247.999130 145.084442,245.543228 144.588013,243.289291 
	C144.151520,241.307480 146.358856,238.018158 148.297821,236.354050 
	C162.699936,223.993225 177.291306,211.851517 191.891861,199.723602 
	C208.924088,185.575806 225.952957,171.421570 243.166382,157.496490 
	C246.189835,155.050613 250.045593,155.358017 252.787125,158.598602 
	C255.034012,161.254486 255.950333,164.419296 252.978806,167.161652 
	C247.945633,171.806610 242.806290,176.349213 237.529678,180.714996 
	C227.248383,189.221603 216.841309,197.576218 206.167603,206.164581 
z"/>
<path fill="#E5E4E1" opacity="1.000000" stroke="none" 
	d="
M169.041260,481.903320 
	C161.068588,478.585419 153.481400,475.375519 145.868500,472.227753 
	C145.163864,471.936432 144.295883,472.040192 143.503754,471.960510 
	C143.540283,472.823303 143.433655,473.721680 143.637909,474.542755 
	C144.571701,478.296356 145.793579,481.989227 146.529449,485.778229 
	C147.374100,490.127441 144.371796,492.362915 140.862091,492.843842 
	C137.155731,493.351715 134.934723,491.792603 133.379868,487.286926 
	C130.508972,478.967529 125.832481,471.268951 121.877449,463.327087 
	C120.247154,460.053375 117.027679,456.555908 120.822159,453.279602 
	C122.837868,451.539185 126.620735,450.246826 129.037827,450.889313 
	C134.775391,452.414429 140.153854,455.264740 145.714447,457.486908 
	C155.618317,461.444733 165.551849,465.328217 175.468765,469.253418 
	C193.043381,476.209625 210.626785,483.143982 228.177063,490.161072 
	C231.488602,491.485138 233.352051,496.021820 232.181351,499.210968 
	C230.733749,503.154449 227.423233,505.000519 223.370575,503.455383 
	C211.883026,499.075531 200.490891,494.445160 189.067032,489.898743 
	C182.512039,487.290039 175.968445,484.652740 169.041260,481.903320 
z"/>
<path fill="#EBEAE4" opacity="1.000000" stroke="none" 
	d="
M437.838013,704.403809 
	C424.328278,700.108459 417.135406,691.541138 418.099945,680.068481 
	C418.820160,671.502319 424.749023,665.670593 430.983887,660.736755 
	C444.769714,649.827454 460.638580,648.574219 476.973419,653.038940 
	C486.829071,655.732727 493.526703,662.909363 496.838074,672.426331 
	C500.017731,681.564819 502.510925,690.995605 504.542694,700.461731 
	C505.955811,707.045654 501.863403,712.079712 496.842468,715.483582 
	C485.151825,723.408997 472.856415,730.672852 458.081909,729.783508 
	C452.014526,729.418396 445.947693,727.039307 440.155762,724.848755 
	C436.642456,723.519897 434.839111,720.388916 436.907410,716.315918 
	C438.921967,712.348694 442.247620,711.153381 446.373383,713.150330 
	C454.246094,716.960815 462.418243,717.346924 470.426971,714.282898 
	C476.255127,712.053162 481.724152,708.841309 487.243103,705.863098 
	C490.557495,704.074585 491.890930,701.465088 490.093140,697.581726 
	C488.942474,695.096069 488.492065,692.286255 487.687012,689.479797 
	C472.850403,700.369873 457.424164,708.781860 437.838013,704.403809 
M460.917633,689.611816 
	C465.535950,687.126831 470.190521,684.706360 474.761261,682.136841 
	C478.532257,680.016846 481.131317,676.476196 479.721130,672.441345 
	C478.766846,669.710938 475.661133,666.762268 472.870178,665.811096 
	C460.487854,661.590942 443.379333,664.458923 433.926270,676.548767 
	C429.884064,681.718506 430.552948,685.612122 436.313263,689.046387 
	C444.115967,693.698303 452.122681,692.472839 460.917633,689.611816 
z"/>
<path fill="#EBEAE4" opacity="1.000000" stroke="none" 
	d="
M539.304443,685.672241 
	C531.122803,669.345398 522.983398,653.411255 515.301514,637.259583 
	C514.146973,634.831970 514.367981,631.069702 515.421204,628.535095 
	C516.024780,627.082703 519.790527,625.921570 521.761719,626.347229 
	C523.742676,626.774902 525.861572,629.024231 526.889160,631.008972 
	C533.742371,644.245911 540.316345,657.627319 546.990356,670.957214 
	C547.800537,672.575378 548.665466,674.166138 549.674133,676.092590 
	C553.609131,673.127869 557.264771,670.101196 561.192627,667.482788 
	C566.180176,664.158020 570.530029,665.174194 572.872498,669.542480 
	C574.799316,673.135498 573.505920,675.886658 570.586182,677.604187 
	C563.909790,681.531494 558.327759,686.116516 554.932678,693.470642 
	C552.589783,698.545654 546.287109,698.303101 543.306274,693.526550 
	C541.822571,691.148987 540.752625,688.513245 539.304443,685.672241 
z"/>
<path fill="#000000" opacity="1.000000" stroke="none" 
	d="
M473.275635,464.891205 
	C471.483063,479.337067 463.346863,489.054504 444.889221,490.051605 
	C442.393677,490.186371 439.864349,490.324982 437.388000,490.081665 
	C425.225891,488.886597 414.952423,472.742798 418.438171,460.977203 
	C423.014771,445.529663 434.732849,439.139862 447.113617,438.291870 
	C451.287872,438.005981 456.391876,440.063141 459.805176,442.692596 
	C464.241302,446.109894 467.786163,450.914886 470.975220,455.623413 
	C472.579132,457.991425 472.549286,461.465973 473.275635,464.891205 
z"/>
<path fill="#000000" opacity="1.000000" stroke="none" 
	d="
M418.888000,497.082947 
	C429.967682,511.315430 424.625000,532.939392 408.717743,539.569458 
	C394.986938,545.292358 378.475159,532.972534 377.679810,517.984009 
	C376.715668,499.813873 397.861816,486.192841 415.208466,494.015198 
	C416.505127,494.599945 417.495087,495.864807 418.888000,497.082947 
z"/>
<path fill="#000000" opacity="1.000000" stroke="none" 
	d="
M616.682983,355.800171 
	C610.764038,360.521545 604.716736,363.010315 597.488770,360.037384 
	C589.078003,356.577911 580.965393,347.389984 580.660034,336.171967 
	C580.349609,324.769379 586.036194,316.395294 590.868835,307.369476 
	C595.332764,299.032501 600.043152,290.804169 605.099426,282.815582 
	C608.783203,276.995483 610.016785,268.909027 617.068726,266.016693 
	C631.486755,260.103119 647.652832,264.928772 650.575745,284.206299 
	C652.272156,295.394714 647.223938,303.378296 642.663086,312.027466 
	C638.733215,319.480103 634.396484,326.723083 630.100403,333.976288 
	C625.809509,341.220703 621.345764,348.362701 616.682983,355.800171 
z"/>
<path fill="#000000" opacity="1.000000" stroke="none" 
	d="
M163.092087,415.179016 
	C158.024826,412.129883 153.198074,409.400909 148.663834,406.250885 
	C144.393997,403.284637 144.404770,398.144836 144.548386,393.901001 
	C144.786591,386.862366 145.686951,379.674896 147.609619,372.920563 
	C149.055969,367.839478 154.370850,366.376221 159.676559,367.938904 
	C169.210739,370.747101 178.899216,373.104858 188.267502,376.381897 
	C197.367233,379.564972 206.297348,383.344452 215.022400,387.455353 
	C223.472260,391.436554 232.834259,406.502777 227.385757,422.155884 
	C226.205902,425.545502 224.782013,429.124939 222.507507,431.797333 
	C218.652267,436.327057 214.930389,436.564026 209.194611,434.182648 
	C193.964081,427.859283 178.706909,421.600067 163.092087,415.179016 
z"/>
<path fill="#848CA8" opacity="1.000000" stroke="none" 
	d="
M460.551086,689.770996 
	C452.122681,692.472839 444.115967,693.698303 436.313263,689.046387 
	C430.552948,685.612122 429.884064,681.718506 433.926270,676.548767 
	C443.379333,664.458923 460.487854,661.590942 472.870178,665.811096 
	C475.661133,666.762268 478.766846,669.710938 479.721130,672.441345 
	C481.131317,676.476196 478.532257,680.016846 474.761261,682.136841 
	C470.190521,684.706360 465.535950,687.126831 460.551086,689.770996 
z"/>
</svg>